<svg width="35" height="35" viewBox="0 0 35 35" fill="none" xmlns="http://www.w3.org/2000/svg">
<path d="M8.75 30.625V27.7083C8.75 26.1612 9.36458 24.6775 10.4585 23.5835C11.5525 22.4896 13.0362 21.875 14.5833 21.875H19.6875M32.0833 32.0833L24.7917 24.7917M24.7917 32.0833L32.0833 24.7917M11.6667 10.2083C11.6667 11.7554 12.2812 13.2392 13.3752 14.3331C14.4692 15.4271 15.9529 16.0417 17.5 16.0417C19.0471 16.0417 20.5308 15.4271 21.6248 14.3331C22.7188 13.2392 23.3333 11.7554 23.3333 10.2083C23.3333 8.66124 22.7188 7.17751 21.6248 6.08354C20.5308 4.98958 19.0471 4.375 17.5 4.375C15.9529 4.375 14.4692 4.98958 13.3752 6.08354C12.2812 7.17751 11.6667 8.66124 11.6667 10.2083Z" stroke="#DB0000" stroke-width="2" stroke-linecap="round" stroke-linejoin="round"/>
</svg>
