<svg width="29" height="29" viewBox="0 0 29 29" fill="none" xmlns="http://www.w3.org/2000/svg">
<path d="M23.1449 25.6329H26.2628C26.5371 25.6372 26.8083 25.5751 27.0533 25.4518C27.2983 25.3284 27.5098 25.1476 27.6698 24.9248C27.8297 24.702 27.9333 24.4437 27.9717 24.1721C28.0101 23.9005 27.9822 23.6237 27.8903 23.3652C27.0953 21.6635 25.8367 20.2205 24.2588 19.2016C22.6809 18.1827 20.8478 17.6293 18.9697 17.6048M18.9697 13.5813C19.6715 13.5815 20.3665 13.4434 21.015 13.175C21.6634 12.9065 22.2526 12.513 22.749 12.0168C23.2453 11.5206 23.639 10.9315 23.9076 10.2831C24.1762 9.63471 24.3145 8.93976 24.3145 8.23794C24.3164 7.5349 24.1796 6.83839 23.9118 6.18832C23.6441 5.53826 23.2507 4.94743 22.7541 4.44969C22.2576 3.95195 21.6677 3.55709 21.0183 3.28774C20.3689 3.01838 19.6728 2.87983 18.9697 2.88003M17.453 27.3727C17.9667 27.372 18.4702 27.2292 18.9077 26.9599C19.3451 26.6907 19.6995 26.3056 19.9316 25.8474C20.1637 25.3891 20.2644 24.8755 20.2225 24.3636C20.1807 23.8516 19.9979 23.3612 19.6945 22.9467C18.6316 21.5357 17.2632 20.3835 15.6918 19.5764C14.1204 18.7692 12.3868 18.328 10.6208 18.2859C8.85459 18.3282 7.12089 18.7696 5.54951 19.577C3.97813 20.3844 2.6098 21.5369 1.54701 22.9482C1.24463 23.3627 1.06269 23.8527 1.02129 24.3641C0.979882 24.8756 1.08062 25.3885 1.31237 25.8462C1.54412 26.304 1.89788 26.6888 2.33457 26.9582C2.77127 27.2276 3.27391 27.371 3.78701 27.3727H17.453ZM10.6208 13.749C12.2275 13.7451 13.767 13.1041 14.9016 11.9664C16.0362 10.8288 16.6732 9.28757 16.6728 7.68086C16.6728 6.07536 16.0351 4.53562 14.8998 3.40036C13.7645 2.2651 12.2248 1.62732 10.6193 1.62732C9.0138 1.62732 7.47406 2.2651 6.3388 3.40036C5.20354 4.53562 4.56576 6.07536 4.56576 7.68086C4.56575 9.28757 5.20311 10.8287 6.338 11.966C7.47288 13.1034 9.01259 13.7441 10.6193 13.7475" fill="#B0A2DA"/>
<path d="M23.1449 25.6329H26.2628C26.5371 25.6372 26.8083 25.5751 27.0533 25.4518C27.2983 25.3284 27.5098 25.1476 27.6698 24.9248C27.8297 24.702 27.9333 24.4437 27.9717 24.1721C28.0101 23.9005 27.9822 23.6237 27.8903 23.3652C27.0953 21.6635 25.8367 20.2205 24.2588 19.2016C22.6809 18.1827 20.8478 17.6293 18.9697 17.6048M18.9697 13.5813C19.6715 13.5815 20.3665 13.4434 21.015 13.175C21.6634 12.9065 22.2526 12.513 22.749 12.0168C23.2453 11.5206 23.639 10.9315 23.9076 10.2831C24.1762 9.63471 24.3145 8.93976 24.3145 8.23794C24.3164 7.5349 24.1796 6.83839 23.9118 6.18832C23.6441 5.53826 23.2506 4.94743 22.7541 4.44969C22.2576 3.95195 21.6677 3.55709 21.0183 3.28774C20.3689 3.01838 19.6728 2.87983 18.9697 2.88003M10.6208 13.749C12.2275 13.7451 13.767 13.1041 14.9016 11.9664C16.0362 10.8288 16.6732 9.28757 16.6728 7.68086C16.6728 6.07536 16.0351 4.53562 14.8998 3.40036C13.7645 2.2651 12.2248 1.62732 10.6193 1.62732C9.0138 1.62732 7.47406 2.2651 6.3388 3.40036C5.20354 4.53562 4.56576 6.07536 4.56576 7.68086C4.56575 9.28757 5.20311 10.8287 6.338 11.966C7.47288 13.1034 9.01259 13.7441 10.6193 13.7475M17.453 27.3727C17.9667 27.372 18.4702 27.2292 18.9077 26.9599C19.3451 26.6907 19.6995 26.3056 19.9316 25.8474C20.1637 25.3891 20.2644 24.8755 20.2225 24.3636C20.1807 23.8516 19.9979 23.3612 19.6945 22.9467C18.6316 21.5357 17.2632 20.3835 15.6918 19.5764C14.1204 18.7692 12.3868 18.328 10.6208 18.2859C8.85459 18.3282 7.12089 18.7696 5.54951 19.577C3.97813 20.3844 2.6098 21.5369 1.54701 22.9481C1.24463 23.3627 1.06269 23.8527 1.02129 24.3641C0.979882 24.8756 1.08062 25.3885 1.31237 25.8462C1.54412 26.304 1.89788 26.6888 2.33457 26.9582C2.77127 27.2276 3.27391 27.371 3.78701 27.3727H17.453Z" stroke="#B0A2DA" stroke-width="2" stroke-linecap="round" stroke-linejoin="round"/>
</svg>
