<svg width="136" height="78" viewBox="0 0 136 78" fill="none" xmlns="http://www.w3.org/2000/svg">
<mask id="path-1-inside-1_215_5302" fill="white">
<path d="M22.3918 30.9789C20.8624 32.6053 18.2783 32.6053 16.7489 30.9789L15.2134 29.346C14.5164 28.6046 13.3385 28.6046 12.6415 29.346C12.0025 30.0255 12.0025 31.0849 12.6415 31.7644L15.2895 34.5806C17.61 37.0483 21.5308 37.0483 23.8512 34.5805L35.0673 22.6525C35.7063 21.973 35.7063 20.9136 35.0673 20.2341C34.3703 19.4927 33.1924 19.4927 32.4954 20.2341L22.3918 30.9789Z"/>
</mask>
<path d="M22.3918 30.9789C20.8624 32.6053 18.2783 32.6053 16.7489 30.9789L15.2134 29.346C14.5164 28.6046 13.3385 28.6046 12.6415 29.346C12.0025 30.0255 12.0025 31.0849 12.6415 31.7644L15.2895 34.5806C17.61 37.0483 21.5308 37.0483 23.8512 34.5805L35.0673 22.6525C35.7063 21.973 35.7063 20.9136 35.0673 20.2341C34.3703 19.4927 33.1924 19.4927 32.4954 20.2341L22.3918 30.9789Z" fill="#07293D"/>
<path d="M32.4954 20.2341L27.3958 15.4388L32.4954 20.2341ZM15.2895 34.5806L20.3891 29.7853L15.2895 34.5806ZM23.8512 34.5805L18.7516 29.7853L23.8512 34.5805ZM16.7489 30.9789L21.8485 26.1837L20.313 24.5507L15.2134 29.346L10.1138 34.1412L11.6493 35.7741L16.7489 30.9789ZM12.6415 31.7644L7.54187 36.5596L10.1899 39.3758L15.2895 34.5806L20.3891 29.7853L17.741 26.9692L12.6415 31.7644ZM23.8512 34.5805L28.9508 39.3758L40.1669 27.4478L35.0673 22.6525L29.9677 17.8573L18.7516 29.7853L23.8512 34.5805ZM32.4954 20.2341L27.3958 15.4388L17.2922 26.1837L22.3918 30.9789L27.4914 35.7741L37.5949 25.0293L32.4954 20.2341ZM35.0673 20.2341L40.1669 15.4388C36.7056 11.7578 30.8571 11.7578 27.3958 15.4388L32.4954 20.2341L37.5949 25.0293C35.5278 27.2277 32.0349 27.2277 29.9677 25.0293L35.0673 20.2341ZM35.0673 22.6525L40.1669 27.4478C43.3398 24.0735 43.3398 18.8131 40.1669 15.4388L35.0673 20.2341L29.9677 25.0293C28.0728 23.0141 28.0728 19.8725 29.9677 17.8573L35.0673 22.6525ZM15.2895 34.5806L10.1899 39.3758C15.2746 44.7832 23.8661 44.7832 28.9508 39.3758L23.8512 34.5805L18.7516 29.7853C19.1954 29.3134 19.9453 29.3134 20.3891 29.7853L15.2895 34.5806ZM12.6415 29.346L7.54187 24.5507C4.36901 27.925 4.369 33.1854 7.54187 36.5596L12.6415 31.7644L17.741 26.9692C19.6359 28.9844 19.6359 32.126 17.741 34.1412L12.6415 29.346ZM15.2134 29.346L20.313 24.5507C16.8517 20.8697 11.0032 20.8697 7.54187 24.5507L12.6415 29.346L17.741 34.1412C15.6739 36.3396 12.181 36.3396 10.1138 34.1412L15.2134 29.346ZM16.7489 30.9789L11.6493 35.7741C15.9429 40.3403 23.1978 40.3403 27.4914 35.7741L22.3918 30.9789L17.2922 26.1837C18.5271 24.8704 20.6136 24.8704 21.8485 26.1837L16.7489 30.9789Z" fill="#FE6766" mask="url(#path-1-inside-1_215_5302)"/>
<path d="M41.2387 2.55651C42.8886 1.08235 43.9603 0.999756 44.9896 0.999756C47.8881 0.999756 50.2123 3.61813 50.1705 6.02116C50.1052 9.7803 47.5381 12.9907 41.2323 16.9998C35.5624 13.6471 32.2671 9.37251 32.1724 6.23176C32.1031 3.94808 34.6029 0.999756 37.5148 0.999756C38.6393 0.999756 39.5709 1.06376 41.2387 2.55651Z" fill="#FE6766" stroke="#FE6766" stroke-width="0.5" stroke-linecap="round" stroke-linejoin="round"/>
<path d="M28.3927 7.91968C28.3927 9.30039 27.2734 10.4197 25.8927 10.4197H10.171C7.4096 10.4197 5.17102 12.6583 5.17102 15.4197V42.7751C5.17105 45.5365 7.40962 47.7751 10.171 47.7751H37.2062C39.9676 47.7751 42.2061 45.5365 42.2062 42.7751V21.8103C42.2062 20.4296 43.3255 19.3103 44.7062 19.3103C46.0869 19.3103 47.2062 20.4296 47.2062 21.8103V42.7751C47.2061 48.298 42.729 52.7751 37.2062 52.7751H10.171C4.6482 52.7751 0.171054 48.298 0.171021 42.7751V15.4197C0.171023 10.0694 4.37269 5.70022 9.65637 5.43237L10.171 5.41968H25.8927C27.2734 5.41968 28.3927 6.53897 28.3927 7.91968Z" fill="#B0A2DA"/>
<path d="M59.9461 22.4385V9.23848H63.1861V22.4385H59.9461ZM56.1061 11.9185V9.23848H67.0661V11.9185H56.1061ZM69.7991 22.7185C69.2124 22.7185 68.6924 22.6051 68.2391 22.3785C67.7858 22.1385 67.4324 21.7985 67.1791 21.3585C66.9258 20.9051 66.7991 20.3585 66.7991 19.7185C66.7991 19.1185 66.9124 18.6251 67.1391 18.2385C67.3791 17.8385 67.7191 17.5251 68.1591 17.2985C68.6124 17.0585 69.1524 16.8651 69.7791 16.7185C70.4058 16.5585 71.1191 16.4185 71.9191 16.2985C72.3058 16.2318 72.6258 16.1718 72.8791 16.1185C73.1458 16.0518 73.3458 15.9518 73.4791 15.8185C73.6124 15.6851 73.6791 15.4918 73.6791 15.2385C73.6791 14.9051 73.5591 14.6185 73.3191 14.3785C73.0791 14.1385 72.6924 14.0185 72.1591 14.0185C71.7858 14.0185 71.4458 14.0851 71.1391 14.2185C70.8458 14.3518 70.5924 14.5451 70.3791 14.7985C70.1658 15.0518 70.0058 15.3585 69.8991 15.7185L67.0591 14.8785C67.2324 14.3185 67.4724 13.8318 67.7791 13.4185C68.0991 13.0051 68.4791 12.6651 68.9191 12.3985C69.3591 12.1185 69.8591 11.9185 70.4191 11.7985C70.9924 11.6651 71.5991 11.5985 72.2391 11.5985C73.3058 11.5985 74.1724 11.7718 74.8391 12.1185C75.5191 12.4518 76.0191 12.9785 76.3391 13.6985C76.6724 14.4051 76.8391 15.3185 76.8391 16.4385V18.0585C76.8391 18.5385 76.8458 19.0251 76.8591 19.5185C76.8858 19.9985 76.9124 20.4851 76.9391 20.9785C76.9791 21.4585 77.0258 21.9451 77.0791 22.4385H74.2391C74.1858 22.1318 74.1324 21.7651 74.0791 21.3385C74.0258 20.8985 73.9858 20.4518 73.9591 19.9985H73.5791C73.3924 20.5051 73.1191 20.9718 72.7591 21.3985C72.4124 21.8118 71.9858 22.1385 71.4791 22.3785C70.9858 22.6051 70.4258 22.7185 69.7991 22.7185ZM71.2591 20.4385C71.4991 20.4385 71.7391 20.3985 71.9791 20.3185C72.2324 20.2251 72.4724 20.1051 72.6991 19.9585C72.9258 19.7985 73.1324 19.6051 73.3191 19.3785C73.5058 19.1518 73.6458 18.9051 73.7391 18.6385L73.6991 17.0585L74.1391 17.1585C73.8858 17.3185 73.6058 17.4451 73.2991 17.5385C72.9924 17.6318 72.6791 17.7051 72.3591 17.7585C72.0524 17.8118 71.7458 17.8718 71.4391 17.9385C71.1458 17.9918 70.8791 18.0651 70.6391 18.1585C70.4124 18.2518 70.2324 18.3785 70.0991 18.5385C69.9658 18.6985 69.8991 18.9185 69.8991 19.1985C69.8991 19.5718 70.0258 19.8718 70.2791 20.0985C70.5324 20.3251 70.8591 20.4385 71.2591 20.4385ZM83.5336 22.7185C82.827 22.7185 82.187 22.6518 81.6136 22.5185C81.0403 22.3985 80.5403 22.2185 80.1136 21.9785C79.687 21.7385 79.3336 21.4518 79.0536 21.1185C78.787 20.7718 78.6003 20.3918 78.4936 19.9785L80.8936 18.9185C80.987 19.1451 81.147 19.3785 81.3736 19.6185C81.6136 19.8451 81.927 20.0318 82.3136 20.1785C82.7136 20.3251 83.1936 20.3985 83.7536 20.3985C84.287 20.3985 84.7003 20.3251 84.9936 20.1785C85.3003 20.0185 85.4536 19.7918 85.4536 19.4985C85.4536 19.2851 85.367 19.1185 85.1936 18.9985C85.0336 18.8651 84.787 18.7518 84.4536 18.6585C84.1203 18.5518 83.707 18.4518 83.2136 18.3585C82.707 18.2518 82.1936 18.1318 81.6736 17.9985C81.1536 17.8518 80.667 17.6585 80.2136 17.4185C79.7603 17.1651 79.3936 16.8385 79.1136 16.4385C78.847 16.0251 78.7136 15.5051 78.7136 14.8785C78.7136 14.2251 78.887 13.6585 79.2336 13.1785C79.5803 12.6851 80.0936 12.2985 80.7736 12.0185C81.467 11.7385 82.307 11.5985 83.2936 11.5985C84.1736 11.5985 84.947 11.7118 85.6136 11.9385C86.2803 12.1651 86.8336 12.4918 87.2736 12.9185C87.727 13.3318 88.0403 13.8318 88.2136 14.4185L85.6336 15.3385C85.567 15.0451 85.427 14.7918 85.2136 14.5785C85.0136 14.3651 84.7536 14.2051 84.4336 14.0985C84.127 13.9785 83.7603 13.9185 83.3336 13.9185C82.8136 13.9185 82.407 13.9985 82.1136 14.1585C81.8336 14.3185 81.6936 14.5318 81.6936 14.7985C81.6936 15.0118 81.787 15.1918 81.9736 15.3385C82.1736 15.4718 82.4536 15.5851 82.8136 15.6785C83.1736 15.7718 83.6003 15.8718 84.0936 15.9785C84.6136 16.0851 85.127 16.2118 85.6336 16.3585C86.1536 16.4918 86.6203 16.6785 87.0336 16.9185C87.4603 17.1451 87.7936 17.4518 88.0336 17.8385C88.287 18.2118 88.4136 18.6985 88.4136 19.2985C88.4136 20.0051 88.227 20.6185 87.8536 21.1385C87.4803 21.6451 86.927 22.0385 86.1936 22.3185C85.4736 22.5851 84.587 22.7185 83.5336 22.7185ZM90.2293 22.4385V8.01848H93.3893V15.9785C93.7759 15.6985 94.1359 15.3985 94.4693 15.0785C94.8159 14.7585 95.1293 14.4251 95.4093 14.0785C95.7026 13.7318 95.9626 13.3785 96.1893 13.0185C96.4293 12.6451 96.6359 12.2651 96.8093 11.8785H100.489C100.316 12.3985 100.076 12.9185 99.7693 13.4385C99.4626 13.9451 99.0893 14.4185 98.6493 14.8585C98.2093 15.2851 97.6826 15.6518 97.0693 15.9585C96.4693 16.2651 95.7893 16.4718 95.0293 16.5785V16.9385C95.9893 16.7518 96.7759 16.7518 97.3893 16.9385C98.0159 17.1118 98.5159 17.3985 98.8893 17.7985C99.2626 18.1985 99.5493 18.6651 99.7493 19.1985C99.9493 19.7318 100.116 20.2585 100.249 20.7785L100.669 22.4385H97.1693L96.9693 21.4385C96.8359 20.7851 96.6759 20.2251 96.4893 19.7585C96.3159 19.2918 96.0626 18.9318 95.7293 18.6785C95.3959 18.4118 94.9159 18.2785 94.2893 18.2785H93.3893V22.4385H90.2293ZM57.1661 51.4385V38.2385H61.9861L65.4261 47.7385H65.5261L68.8861 38.2385H73.4861V51.4385H70.4461L70.6261 41.5185H70.4061L66.5861 51.4385H63.9461L60.2061 41.5185H59.9861L60.1661 51.4385H57.1661ZM78.5491 51.7185C77.9624 51.7185 77.4424 51.6051 76.9891 51.3785C76.5358 51.1385 76.1824 50.7985 75.9291 50.3585C75.6758 49.9051 75.5491 49.3585 75.5491 48.7185C75.5491 48.1185 75.6624 47.6251 75.8891 47.2385C76.1291 46.8385 76.4691 46.5251 76.9091 46.2985C77.3624 46.0585 77.9024 45.8651 78.5291 45.7185C79.1558 45.5585 79.8691 45.4185 80.6691 45.2985C81.0558 45.2318 81.3758 45.1718 81.6291 45.1185C81.8958 45.0518 82.0958 44.9518 82.2291 44.8185C82.3624 44.6851 82.4291 44.4918 82.4291 44.2385C82.4291 43.9051 82.3091 43.6185 82.0691 43.3785C81.8291 43.1385 81.4424 43.0185 80.9091 43.0185C80.5358 43.0185 80.1958 43.0851 79.8891 43.2185C79.5958 43.3518 79.3424 43.5451 79.1291 43.7985C78.9158 44.0518 78.7558 44.3585 78.6491 44.7185L75.8091 43.8785C75.9824 43.3185 76.2224 42.8318 76.5291 42.4185C76.8491 42.0051 77.2291 41.6651 77.6691 41.3985C78.1091 41.1185 78.6091 40.9185 79.1691 40.7985C79.7424 40.6651 80.3491 40.5985 80.9891 40.5985C82.0558 40.5985 82.9224 40.7718 83.5891 41.1185C84.2691 41.4518 84.7691 41.9785 85.0891 42.6985C85.4224 43.4051 85.5891 44.3185 85.5891 45.4385V47.0585C85.5891 47.5385 85.5958 48.0251 85.6091 48.5185C85.6358 48.9985 85.6624 49.4851 85.6891 49.9785C85.7291 50.4585 85.7758 50.9451 85.8291 51.4385H82.9891C82.9358 51.1318 82.8824 50.7651 82.8291 50.3385C82.7758 49.8985 82.7358 49.4518 82.7091 48.9985H82.3291C82.1424 49.5051 81.8691 49.9718 81.5091 50.3985C81.1624 50.8118 80.7358 51.1385 80.2291 51.3785C79.7358 51.6051 79.1758 51.7185 78.5491 51.7185ZM80.0091 49.4385C80.2491 49.4385 80.4891 49.3985 80.7291 49.3185C80.9824 49.2251 81.2224 49.1051 81.4491 48.9585C81.6758 48.7985 81.8824 48.6051 82.0691 48.3785C82.2558 48.1518 82.3958 47.9051 82.4891 47.6385L82.4491 46.0585L82.8891 46.1585C82.6358 46.3185 82.3558 46.4451 82.0491 46.5385C81.7424 46.6318 81.4291 46.7051 81.1091 46.7585C80.8024 46.8118 80.4958 46.8718 80.1891 46.9385C79.8958 46.9918 79.6291 47.0651 79.3891 47.1585C79.1624 47.2518 78.9824 47.3785 78.8491 47.5385C78.7158 47.6985 78.6491 47.9185 78.6491 48.1985C78.6491 48.5718 78.7758 48.8718 79.0291 49.0985C79.2824 49.3251 79.6091 49.4385 80.0091 49.4385ZM87.9636 51.4385V44.6185V40.8785H90.5036L90.5436 43.9785H90.9436C91.1303 43.2185 91.377 42.5918 91.6836 42.0985C91.9903 41.5918 92.3636 41.2185 92.8036 40.9785C93.2436 40.7251 93.757 40.5985 94.3436 40.5985C94.957 40.5985 95.4636 40.7318 95.8636 40.9985C96.277 41.2518 96.6036 41.6318 96.8436 42.1385C97.0836 42.6318 97.2436 43.2451 97.3236 43.9785H97.6636C97.877 43.1918 98.157 42.5518 98.5036 42.0585C98.8503 41.5518 99.2636 41.1851 99.7436 40.9585C100.224 40.7185 100.744 40.5985 101.304 40.5985C101.904 40.5985 102.424 40.7185 102.864 40.9585C103.317 41.1851 103.69 41.5318 103.984 41.9985C104.29 42.4518 104.517 43.0251 104.664 43.7185C104.81 44.3985 104.884 45.1918 104.884 46.0985V51.4385H101.644V46.4985C101.644 45.7918 101.584 45.2051 101.464 44.7385C101.357 44.2718 101.184 43.9251 100.944 43.6985C100.704 43.4585 100.397 43.3385 100.024 43.3385C99.597 43.3385 99.2303 43.4785 98.9236 43.7585C98.6303 44.0385 98.4036 44.4318 98.2436 44.9385C98.0836 45.4318 98.0036 45.9918 98.0036 46.6185V51.4385H94.8436V46.5585C94.8436 45.8251 94.777 45.2251 94.6436 44.7585C94.5236 44.2918 94.337 43.9385 94.0836 43.6985C93.8436 43.4585 93.537 43.3385 93.1636 43.3385C92.737 43.3385 92.377 43.4785 92.0836 43.7585C91.7903 44.0385 91.5636 44.4318 91.4036 44.9385C91.257 45.4318 91.1836 45.9918 91.1836 46.6185V51.4385H87.9636ZM109.701 51.7185C109.115 51.7185 108.595 51.6051 108.141 51.3785C107.688 51.1385 107.335 50.7985 107.081 50.3585C106.828 49.9051 106.701 49.3585 106.701 48.7185C106.701 48.1185 106.815 47.6251 107.041 47.2385C107.281 46.8385 107.621 46.5251 108.061 46.2985C108.515 46.0585 109.055 45.8651 109.681 45.7185C110.308 45.5585 111.021 45.4185 111.821 45.2985C112.208 45.2318 112.528 45.1718 112.781 45.1185C113.048 45.0518 113.248 44.9518 113.381 44.8185C113.515 44.6851 113.581 44.4918 113.581 44.2385C113.581 43.9051 113.461 43.6185 113.221 43.3785C112.981 43.1385 112.595 43.0185 112.061 43.0185C111.688 43.0185 111.348 43.0851 111.041 43.2185C110.748 43.3518 110.495 43.5451 110.281 43.7985C110.068 44.0518 109.908 44.3585 109.801 44.7185L106.961 43.8785C107.135 43.3185 107.375 42.8318 107.681 42.4185C108.001 42.0051 108.381 41.6651 108.821 41.3985C109.261 41.1185 109.761 40.9185 110.321 40.7985C110.895 40.6651 111.501 40.5985 112.141 40.5985C113.208 40.5985 114.075 40.7718 114.741 41.1185C115.421 41.4518 115.921 41.9785 116.241 42.6985C116.575 43.4051 116.741 44.3185 116.741 45.4385V47.0585C116.741 47.5385 116.748 48.0251 116.761 48.5185C116.788 48.9985 116.815 49.4851 116.841 49.9785C116.881 50.4585 116.928 50.9451 116.981 51.4385H114.141C114.088 51.1318 114.035 50.7651 113.981 50.3385C113.928 49.8985 113.888 49.4518 113.861 48.9985H113.481C113.295 49.5051 113.021 49.9718 112.661 50.3985C112.315 50.8118 111.888 51.1385 111.381 51.3785C110.888 51.6051 110.328 51.7185 109.701 51.7185ZM111.161 49.4385C111.401 49.4385 111.641 49.3985 111.881 49.3185C112.135 49.2251 112.375 49.1051 112.601 48.9585C112.828 48.7985 113.035 48.6051 113.221 48.3785C113.408 48.1518 113.548 47.9051 113.641 47.6385L113.601 46.0585L114.041 46.1585C113.788 46.3185 113.508 46.4451 113.201 46.5385C112.895 46.6318 112.581 46.7051 112.261 46.7585C111.955 46.8118 111.648 46.8718 111.341 46.9385C111.048 46.9918 110.781 47.0651 110.541 47.1585C110.315 47.2518 110.135 47.3785 110.001 47.5385C109.868 47.6985 109.801 47.9185 109.801 48.1985C109.801 48.5718 109.928 48.8718 110.181 49.0985C110.435 49.3251 110.761 49.4385 111.161 49.4385Z" fill="#FE6766"/>
<path d="M2.5126 74.3796L2.3086 66.3516C2.1966 66.3596 2.0886 66.3716 1.9846 66.3876C1.8886 66.4036 1.8006 66.4196 1.7206 66.4356L1.4806 65.3796C1.7046 65.3316 1.9926 65.2836 2.3446 65.2356C2.7046 65.1796 3.0926 65.1276 3.5086 65.0796C3.9326 65.0236 4.3486 64.9796 4.7566 64.9476C5.1646 64.9156 5.5326 64.8996 5.8606 64.8996C6.4526 64.8996 6.9766 64.9916 7.4326 65.1756C7.8966 65.3596 8.2566 65.6316 8.5126 65.9916C8.7766 66.3436 8.9086 66.7756 8.9086 67.2876C8.9086 67.8396 8.7766 68.2876 8.5126 68.6316C8.2486 68.9756 7.8926 69.1916 7.4446 69.2796L7.4566 69.3036C7.7926 69.3356 8.1006 69.4556 8.3806 69.6636C8.6686 69.8716 8.8966 70.1516 9.0646 70.5036C9.2406 70.8556 9.3286 71.2756 9.3286 71.7636C9.3286 72.3396 9.1886 72.8236 8.9086 73.2156C8.6366 73.5996 8.2486 73.8916 7.7446 74.0916C7.2486 74.2836 6.6646 74.3796 5.9926 74.3796H2.5126ZM3.9526 69.0636C4.1446 69.0636 4.3646 69.0596 4.6126 69.0516C4.8686 69.0436 5.1166 69.0316 5.3566 69.0156C5.6046 68.9996 5.8086 68.9756 5.9686 68.9436C6.3686 68.8636 6.6886 68.7076 6.9286 68.4756C7.1766 68.2436 7.3006 67.9396 7.3006 67.5636C7.3006 67.2676 7.2286 67.0116 7.0846 66.7956C6.9406 66.5796 6.7526 66.4116 6.5206 66.2916C6.2886 66.1716 6.0326 66.1116 5.7526 66.1116C5.1686 66.1116 4.5686 66.1356 3.9526 66.1836V69.0636ZM4.2526 73.2396C4.6446 73.2396 5.0406 73.2276 5.4406 73.2036C5.8406 73.1796 6.1766 73.1396 6.4486 73.0836C6.8966 72.9876 7.2286 72.8076 7.4446 72.5436C7.6606 72.2716 7.7686 71.9316 7.7686 71.5236C7.7686 71.2276 7.6886 70.9836 7.5286 70.7916C7.3686 70.5916 7.1606 70.4436 6.9046 70.3476C6.6566 70.2516 6.3846 70.2036 6.0886 70.2036H3.9526V73.2396H4.2526ZM15.6848 74.4996C15.4848 74.3396 15.3288 74.1876 15.2168 74.0436C15.1128 73.8916 15.0248 73.7116 14.9528 73.5036C14.8088 73.7516 14.6048 73.9516 14.3408 74.1036C14.0768 74.2476 13.7808 74.3516 13.4528 74.4156C13.1328 74.4796 12.8048 74.5116 12.4688 74.5116C11.7888 74.5116 11.2768 74.3556 10.9328 74.0436C10.5888 73.7316 10.4088 73.2956 10.3928 72.7356V72.6876C10.3928 72.0476 10.5968 71.5436 11.0048 71.1756C11.4128 70.8076 11.9808 70.5436 12.7088 70.3836C13.2048 70.2716 13.6208 70.1516 13.9568 70.0236C14.3008 69.8876 14.4728 69.7356 14.4728 69.5676C14.4728 69.0316 14.0528 68.7636 13.2128 68.7636C12.7888 68.7636 12.3768 68.8476 11.9768 69.0156C11.5768 69.1756 11.2488 69.3676 10.9928 69.5916L10.5128 68.7276C10.7928 68.3596 11.1768 68.0756 11.6648 67.8756C12.1608 67.6756 12.7208 67.5756 13.3448 67.5756C14.2728 67.5756 14.9688 67.7476 15.4328 68.0916C15.9048 68.4276 16.1408 68.9596 16.1408 69.6876V72.4116C16.1408 72.7236 16.2008 73.0316 16.3208 73.3356C16.4408 73.6396 16.6128 73.9036 16.8368 74.1276L15.6848 74.4996ZM12.0488 72.5676C12.0568 72.7836 12.1208 72.9676 12.2408 73.1196C12.3608 73.2716 12.5408 73.3476 12.7808 73.3476C13.1328 73.3476 13.4768 73.2476 13.8128 73.0476C14.1488 72.8476 14.3808 72.5956 14.5088 72.2916C14.5488 72.2036 14.5728 72.0956 14.5808 71.9676C14.5968 71.8316 14.6048 71.6916 14.6048 71.5476C14.6048 71.3396 14.5968 71.1516 14.5808 70.9836C14.5648 70.8156 14.5568 70.7316 14.5568 70.7316C14.3808 70.8676 14.1528 70.9836 13.8728 71.0796C13.6008 71.1756 13.3128 71.2676 13.0088 71.3556C12.7128 71.4356 12.4768 71.5676 12.3008 71.7516C12.1328 71.9356 12.0488 72.1796 12.0488 72.4836V72.5676ZM18.0675 74.5356V64.7796L19.8075 65.0196L19.5675 74.3796L18.0675 74.5356ZM26.4191 74.4996C26.2191 74.3396 26.0631 74.1876 25.9511 74.0436C25.8471 73.8916 25.7591 73.7116 25.6871 73.5036C25.5431 73.7516 25.3391 73.9516 25.0751 74.1036C24.8111 74.2476 24.5151 74.3516 24.1871 74.4156C23.8671 74.4796 23.5391 74.5116 23.2031 74.5116C22.5231 74.5116 22.0111 74.3556 21.6671 74.0436C21.3231 73.7316 21.1431 73.2956 21.1271 72.7356V72.6876C21.1271 72.0476 21.3311 71.5436 21.7391 71.1756C22.1471 70.8076 22.7151 70.5436 23.4431 70.3836C23.9391 70.2716 24.3551 70.1516 24.6911 70.0236C25.0351 69.8876 25.2071 69.7356 25.2071 69.5676C25.2071 69.0316 24.7871 68.7636 23.9471 68.7636C23.5231 68.7636 23.1111 68.8476 22.7111 69.0156C22.3111 69.1756 21.9831 69.3676 21.7271 69.5916L21.2471 68.7276C21.5271 68.3596 21.9111 68.0756 22.3991 67.8756C22.8951 67.6756 23.4551 67.5756 24.0791 67.5756C25.0071 67.5756 25.7031 67.7476 26.1671 68.0916C26.6391 68.4276 26.8751 68.9596 26.8751 69.6876V72.4116C26.8751 72.7236 26.9351 73.0316 27.0551 73.3356C27.1751 73.6396 27.3471 73.9036 27.5711 74.1276L26.4191 74.4996ZM22.7831 72.5676C22.7911 72.7836 22.8551 72.9676 22.9751 73.1196C23.0951 73.2716 23.2751 73.3476 23.5151 73.3476C23.8671 73.3476 24.2111 73.2476 24.5471 73.0476C24.8831 72.8476 25.1151 72.5956 25.2431 72.2916C25.2831 72.2036 25.3071 72.0956 25.3151 71.9676C25.3311 71.8316 25.3391 71.6916 25.3391 71.5476C25.3391 71.3396 25.3311 71.1516 25.3151 70.9836C25.2991 70.8156 25.2911 70.7316 25.2911 70.7316C25.1151 70.8676 24.8871 70.9836 24.6071 71.0796C24.3351 71.1756 24.0471 71.2676 23.7431 71.3556C23.4471 71.4356 23.2111 71.5676 23.0351 71.7516C22.8671 71.9356 22.7831 72.1796 22.7831 72.4836V72.5676ZM33.1939 74.5356V70.0596C33.1939 69.6596 33.0699 69.3556 32.8219 69.1476C32.5819 68.9316 32.2899 68.8236 31.9459 68.8236C31.6019 68.8236 31.2859 68.9156 30.9979 69.0996C30.7179 69.2836 30.5219 69.5516 30.4099 69.9036V74.3796L28.9459 74.5356L28.7059 67.5156L30.4099 67.7196V68.4996C30.5699 68.1956 30.8059 67.9676 31.1179 67.8156C31.4379 67.6556 31.8739 67.5756 32.4259 67.5756C32.9139 67.5756 33.3419 67.6796 33.7099 67.8876C34.0859 68.0956 34.3739 68.3796 34.5739 68.7396C34.7819 69.0916 34.8739 69.4916 34.8499 69.9396L34.6099 74.3796L33.1939 74.5356ZM42.222 73.4196C41.998 73.7396 41.658 74.0036 41.202 74.2116C40.746 74.4116 40.23 74.5116 39.654 74.5116C39.038 74.5116 38.466 74.3836 37.938 74.1276C37.41 73.8636 36.982 73.4756 36.654 72.9636C36.334 72.4516 36.174 71.8116 36.174 71.0436C36.174 70.3156 36.326 69.6956 36.63 69.1836C36.934 68.6636 37.346 68.2676 37.866 67.9956C38.394 67.7156 38.99 67.5756 39.654 67.5756C40.19 67.5756 40.678 67.6676 41.118 67.8516C41.566 68.0276 41.914 68.2716 42.162 68.5836L41.754 69.4956C41.554 69.2876 41.274 69.1156 40.914 68.9796C40.554 68.8436 40.21 68.7756 39.882 68.7756C39.506 68.7756 39.162 68.8636 38.85 69.0396C38.538 69.2156 38.29 69.4756 38.106 69.8196C37.93 70.1556 37.842 70.5636 37.842 71.0436C37.842 71.7636 38.038 72.3196 38.43 72.7116C38.822 73.1036 39.318 73.2996 39.918 73.2996C40.31 73.2996 40.674 73.2356 41.01 73.1076C41.354 72.9796 41.626 72.8036 41.826 72.5796L42.222 73.4196ZM49.3738 73.2036C49.1418 73.5156 48.8938 73.7676 48.6298 73.9596C48.3738 74.1516 48.0778 74.2916 47.7418 74.3796C47.4058 74.4676 46.9938 74.5116 46.5058 74.5116C45.8098 74.5116 45.2138 74.3596 44.7178 74.0556C44.2218 73.7436 43.8418 73.3276 43.5778 72.8076C43.3138 72.2796 43.1818 71.6916 43.1818 71.0436C43.1818 70.3876 43.3178 69.7996 43.5898 69.2796C43.8618 68.7516 44.2418 68.3356 44.7298 68.0316C45.2258 67.7276 45.8018 67.5756 46.4578 67.5756C47.0978 67.5756 47.6458 67.7236 48.1018 68.0196C48.5658 68.3076 48.9218 68.7236 49.1698 69.2676C49.4178 69.8036 49.5418 70.4436 49.5418 71.1876V71.3916H45.1978L44.9338 70.4556L47.8858 70.2156C47.8618 69.7916 47.7418 69.4476 47.5258 69.1836C47.3178 68.9116 46.9818 68.7756 46.5178 68.7756C45.9818 68.7756 45.5378 68.9756 45.1858 69.3756C44.8418 69.7676 44.6698 70.3276 44.6698 71.0556C44.6698 71.5756 44.7658 72.0076 44.9578 72.3516C45.1578 72.6876 45.4058 72.9396 45.7018 73.1076C46.0058 73.2676 46.3098 73.3476 46.6138 73.3476C47.1258 73.3476 47.5818 73.2636 47.9818 73.0956C48.3898 72.9196 48.7098 72.6836 48.9418 72.3876L49.3738 73.2036ZM60.4262 68.0196C60.3782 67.5876 60.2902 67.2436 60.1622 66.9876C60.0422 66.7316 59.9062 66.5396 59.7542 66.4116C59.5622 66.2436 59.3422 66.1236 59.0942 66.0516C58.8542 65.9716 58.5502 65.9316 58.1822 65.9316C57.6702 65.9316 57.2822 66.0756 57.0182 66.3636C56.7542 66.6436 56.6222 66.9756 56.6222 67.3596C56.6222 67.6076 56.7462 67.8436 56.9942 68.0676C57.2502 68.2836 57.5862 68.4596 58.0022 68.5956L59.4422 69.0636C60.1862 69.3036 60.7622 69.6236 61.1702 70.0236C61.5862 70.4236 61.7942 70.9836 61.7942 71.7036C61.7942 72.6156 61.4942 73.3276 60.8942 73.8396C60.3022 74.3436 59.4542 74.5956 58.3502 74.5956C57.4142 74.5956 56.6342 74.3756 56.0102 73.9356C55.3942 73.4956 54.9662 72.9116 54.7262 72.1836L55.6142 71.5956C55.8462 72.1316 56.1982 72.5596 56.6702 72.8796C57.1502 73.1916 57.7102 73.3476 58.3502 73.3476C58.8942 73.3476 59.3342 73.2076 59.6702 72.9276C60.0062 72.6396 60.1742 72.2916 60.1742 71.8836C60.1742 71.5476 60.0342 71.2596 59.7542 71.0196C59.4742 70.7796 59.0862 70.5716 58.5902 70.3956L57.2342 69.9276C56.4982 69.6716 55.9582 69.3596 55.6142 68.9916C55.2702 68.6236 55.0982 68.1076 55.0982 67.4436C55.0982 66.9556 55.2222 66.5116 55.4702 66.1116C55.7182 65.7116 56.0782 65.3916 56.5502 65.1516C57.0302 64.9116 57.6022 64.7916 58.2662 64.7916C59.0182 64.7916 59.6862 64.9156 60.2702 65.1636C60.8542 65.4116 61.2822 65.7196 61.5542 66.0876L61.2182 68.0196H60.4262ZM70.8691 74.5356V70.0596C70.8691 69.2516 70.5451 68.8476 69.8971 68.8476C69.6971 68.8476 69.5211 68.9156 69.3691 69.0516C69.2171 69.1796 69.0971 69.3436 69.0091 69.5436C68.9291 69.7436 68.8811 69.9476 68.8651 70.1556L68.6251 74.3796L67.1731 74.5356V70.0596C67.1731 69.6596 67.1051 69.3596 66.9691 69.1596C66.8331 68.9516 66.6091 68.8476 66.2971 68.8476C66.0251 68.8476 65.7811 68.9356 65.5651 69.1116C65.3491 69.2876 65.1971 69.5156 65.1091 69.7956V74.3796L63.6451 74.5356L63.4051 67.5156L65.1091 67.7196V68.4876C65.2451 68.1996 65.4691 67.9756 65.7811 67.8156C66.0931 67.6556 66.4731 67.5756 66.9211 67.5756C67.3451 67.5756 67.7091 67.6716 68.0131 67.8636C68.3251 68.0476 68.5451 68.2996 68.6731 68.6196C68.8091 68.2996 69.0371 68.0476 69.3571 67.8636C69.6771 67.6716 70.0731 67.5756 70.5451 67.5756C70.9371 67.5756 71.2851 67.6596 71.5891 67.8276C71.8931 67.9956 72.1331 68.2316 72.3091 68.5356C72.4851 68.8396 72.5731 69.1996 72.5731 69.6156V69.7716L72.3331 74.3796L70.8691 74.5356ZM79.2004 74.4996C79.0004 74.3396 78.8444 74.1876 78.7324 74.0436C78.6284 73.8916 78.5404 73.7116 78.4684 73.5036C78.3244 73.7516 78.1204 73.9516 77.8564 74.1036C77.5924 74.2476 77.2964 74.3516 76.9684 74.4156C76.6484 74.4796 76.3204 74.5116 75.9844 74.5116C75.3044 74.5116 74.7924 74.3556 74.4484 74.0436C74.1044 73.7316 73.9244 73.2956 73.9084 72.7356V72.6876C73.9084 72.0476 74.1124 71.5436 74.5204 71.1756C74.9284 70.8076 75.4964 70.5436 76.2244 70.3836C76.7204 70.2716 77.1364 70.1516 77.4724 70.0236C77.8164 69.8876 77.9884 69.7356 77.9884 69.5676C77.9884 69.0316 77.5684 68.7636 76.7284 68.7636C76.3044 68.7636 75.8924 68.8476 75.4924 69.0156C75.0924 69.1756 74.7644 69.3676 74.5084 69.5916L74.0284 68.7276C74.3084 68.3596 74.6924 68.0756 75.1804 67.8756C75.6764 67.6756 76.2364 67.5756 76.8604 67.5756C77.7884 67.5756 78.4844 67.7476 78.9484 68.0916C79.4204 68.4276 79.6564 68.9596 79.6564 69.6876V72.4116C79.6564 72.7236 79.7164 73.0316 79.8364 73.3356C79.9564 73.6396 80.1284 73.9036 80.3524 74.1276L79.2004 74.4996ZM75.5644 72.5676C75.5724 72.7836 75.6364 72.9676 75.7564 73.1196C75.8764 73.2716 76.0564 73.3476 76.2964 73.3476C76.6484 73.3476 76.9924 73.2476 77.3284 73.0476C77.6644 72.8476 77.8964 72.5956 78.0244 72.2916C78.0644 72.2036 78.0884 72.0956 78.0964 71.9676C78.1124 71.8316 78.1204 71.6916 78.1204 71.5476C78.1204 71.3396 78.1124 71.1516 78.0964 70.9836C78.0804 70.8156 78.0724 70.7316 78.0724 70.7316C77.8964 70.8676 77.6684 70.9836 77.3884 71.0796C77.1164 71.1756 76.8284 71.2676 76.5244 71.3556C76.2284 71.4356 75.9924 71.5676 75.8164 71.7516C75.6484 71.9356 75.5644 72.1796 75.5644 72.4836V72.5676ZM81.7271 74.5476L81.4871 67.5156L83.1911 67.7196V68.4036C83.3431 68.2116 83.4951 68.0556 83.6471 67.9356C83.8071 67.8156 84.0071 67.7276 84.2471 67.6716C84.4871 67.6156 84.8031 67.5836 85.1951 67.5756L85.4711 69.0396C85.2071 68.9916 84.9671 68.9676 84.7511 68.9676C83.9431 68.9676 83.4231 69.2916 83.1911 69.9396V74.3796L81.7271 74.5476ZM89.6456 74.5116C88.7176 74.5116 88.0456 74.3276 87.6296 73.9596C87.2136 73.5916 87.0056 73.0596 87.0056 72.3636V68.8356H86.0936L85.8536 67.9116L87.0056 67.7916V65.6316L88.6976 65.8716L88.6376 67.6236L89.8376 67.5036V68.8356H88.5896L88.4696 72.1476V72.2676C88.4696 72.6596 88.5696 72.9716 88.7696 73.2036C88.9776 73.4276 89.3496 73.5396 89.8856 73.5396L89.6456 74.5116ZM97.0691 73.2036C96.8371 73.5156 96.5891 73.7676 96.3251 73.9596C96.0691 74.1516 95.7731 74.2916 95.4371 74.3796C95.1011 74.4676 94.6891 74.5116 94.2011 74.5116C93.5051 74.5116 92.9091 74.3596 92.4131 74.0556C91.9171 73.7436 91.5371 73.3276 91.2731 72.8076C91.0091 72.2796 90.8771 71.6916 90.8771 71.0436C90.8771 70.3876 91.0131 69.7996 91.2851 69.2796C91.5571 68.7516 91.9371 68.3356 92.4251 68.0316C92.9211 67.7276 93.4971 67.5756 94.1531 67.5756C94.7931 67.5756 95.3411 67.7236 95.7971 68.0196C96.2611 68.3076 96.6171 68.7236 96.8651 69.2676C97.1131 69.8036 97.2371 70.4436 97.2371 71.1876V71.3916H92.8931L92.6291 70.4556L95.5811 70.2156C95.5571 69.7916 95.4371 69.4476 95.2211 69.1836C95.0131 68.9116 94.6771 68.7756 94.2131 68.7756C93.6771 68.7756 93.2331 68.9756 92.8811 69.3756C92.5371 69.7676 92.3651 70.3276 92.3651 71.0556C92.3651 71.5756 92.4611 72.0076 92.6531 72.3516C92.8531 72.6876 93.1011 72.9396 93.3971 73.1076C93.7011 73.2676 94.0051 73.3476 94.3091 73.3476C94.8211 73.3476 95.2771 73.2636 95.6771 73.0956C96.0851 72.9196 96.4051 72.6836 96.6371 72.3876L97.0691 73.2036ZM98.8248 74.5476L98.5848 67.5156L100.289 67.7196V68.4036C100.441 68.2116 100.593 68.0556 100.745 67.9356C100.905 67.8156 101.105 67.7276 101.345 67.6716C101.585 67.6156 101.901 67.5836 102.293 67.5756L102.569 69.0396C102.305 68.9916 102.065 68.9676 101.849 68.9676C101.041 68.9676 100.521 69.2916 100.289 69.9396V74.3796L98.8248 74.5476Z" fill="#B0A2DA"/>
</svg>
